<svg width="40" height="40" viewBox="0 0 40 40" fill="none" xmlns="http://www.w3.org/2000/svg">
<path d="M10.0188 23.0937C10.023 23.1784 10.01 23.2631 9.98047 23.3425C9.95096 23.422 9.9056 23.4946 9.84714 23.556C9.78867 23.6174 9.71833 23.6663 9.64039 23.6996C9.56245 23.733 9.47854 23.7501 9.39377 23.75H2.50002C2.21789 23.7504 1.94391 23.6554 1.72263 23.4804C1.50136 23.3053 1.3458 23.0606 1.28127 22.7859C1.24108 22.5979 1.24293 22.4034 1.28669 22.2162C1.33045 22.029 1.41503 21.8538 1.53439 21.7031C2.63722 20.2406 4.10047 19.089 5.78127 18.3609C5.04334 17.6881 4.47737 16.8483 4.13076 15.9118C3.78415 14.9752 3.66699 13.9693 3.7891 12.9782C3.91121 11.9871 4.26902 11.0397 4.83258 10.2153C5.39613 9.39089 6.14902 8.71355 7.02819 8.23997C7.90735 7.76639 8.8872 7.51036 9.88565 7.49334C10.8841 7.47632 11.8721 7.69879 12.7669 8.14212C13.6617 8.58546 14.4373 9.23674 15.0286 10.0414C15.6199 10.8461 16.0098 11.7808 16.1656 12.7672C16.1858 12.8998 16.162 13.0354 16.098 13.1533C16.034 13.2712 15.9332 13.365 15.811 13.4203C14.0772 14.2218 12.6089 15.5026 11.5792 17.1114C10.5496 18.7202 10.0017 20.5899 10 22.5C10 22.7 10 22.8969 10.0188 23.0937ZM38.4563 21.7016C37.356 20.2407 35.8961 19.0898 34.2188 18.3609C34.9567 17.6881 35.5227 16.8483 35.8693 15.9118C36.2159 14.9752 36.333 13.9693 36.2109 12.9782C36.0888 11.9871 35.731 11.0397 35.1675 10.2153C34.6039 9.39089 33.851 8.71355 32.9718 8.23997C32.0927 7.76639 31.1128 7.51036 30.1144 7.49334C29.1159 7.47632 28.1279 7.69879 27.2331 8.14212C26.3383 8.58546 25.5628 9.23674 24.9714 10.0414C24.3801 10.8461 23.9902 11.7808 23.8344 12.7672C23.8143 12.8998 23.838 13.0354 23.9021 13.1533C23.9661 13.2712 24.0669 13.365 24.1891 13.4203C25.9228 14.2218 27.3912 15.5026 28.4208 17.1114C29.4504 18.7202 29.9984 20.5899 30 22.5C30 22.7 30 22.8969 29.9813 23.0937C29.977 23.1784 29.9901 23.2631 30.0196 23.3425C30.0491 23.422 30.0944 23.4946 30.1529 23.556C30.2114 23.6174 30.2817 23.6663 30.3596 23.6996C30.4376 23.733 30.5215 23.7501 30.6063 23.75H37.5C37.7822 23.7504 38.0561 23.6554 38.2774 23.4804C38.4987 23.3053 38.6542 23.0606 38.7188 22.7859C38.7592 22.5976 38.7573 22.4026 38.7133 22.2151C38.6692 22.0276 38.5841 21.8522 38.4641 21.7016H38.4563ZM24.55 28.4484C25.7946 27.4953 26.7093 26.176 27.1654 24.6762C27.6215 23.1763 27.5962 21.5713 27.093 20.0865C26.5897 18.6018 25.6339 17.3121 24.3599 16.3987C23.0858 15.4853 21.5575 14.994 19.9899 14.994C18.4222 14.994 16.8939 15.4853 15.6199 16.3987C14.3458 17.3121 13.39 18.6018 12.8868 20.0865C12.3835 21.5713 12.3582 23.1763 12.8143 24.6762C13.2705 26.176 14.1851 27.4953 15.4297 28.4484C13.2212 29.4054 11.377 31.0442 10.1672 33.125C10.0575 33.315 9.99972 33.5306 9.99974 33.7501C9.99975 33.9695 10.0575 34.1851 10.1673 34.3751C10.277 34.5651 10.4349 34.7229 10.6249 34.8326C10.815 34.9423 11.0306 35 11.25 35H28.75C28.9695 35 29.1851 34.9423 29.3751 34.8326C29.5652 34.7229 29.723 34.5651 29.8328 34.3751C29.9425 34.1851 30.0003 33.9695 30.0003 33.7501C30.0003 33.5306 29.9426 33.315 29.8328 33.125C28.6204 31.0428 26.7728 29.4039 24.561 28.4484H24.55Z" fill="#5265FF"/>
</svg>
