<svg width="28" height="28" viewBox="0 0 28 28" fill="none" xmlns="http://www.w3.org/2000/svg">
<path d="M25.1191 11.9941L19.8691 17.2441C19.7049 17.4082 19.4822 17.5005 19.25 17.5005C19.0178 17.5005 18.7951 17.4082 18.6309 17.2441C18.4668 17.0799 18.3745 16.8572 18.3745 16.625C18.3745 16.3928 18.4668 16.1701 18.6309 16.0059L22.388 12.25H18.0469C15.9126 12.2494 13.8387 12.9582 12.1512 14.265C10.4637 15.5717 9.25841 17.4022 8.72484 19.4688C8.66683 19.6936 8.52188 19.8861 8.32189 20.0041C8.1219 20.122 7.88325 20.1557 7.65844 20.0977C7.43362 20.0396 7.24107 19.8947 7.12312 19.6947C7.00518 19.4947 6.97151 19.2561 7.02953 19.0312C7.65911 16.5884 9.08333 14.4243 11.0779 12.8798C13.0725 11.3353 15.5242 10.4981 18.0469 10.5H22.3902L18.6309 6.74406C18.5496 6.66276 18.4852 6.56625 18.4412 6.46003C18.3972 6.35381 18.3745 6.23997 18.3745 6.125C18.3745 6.01003 18.3972 5.89618 18.4412 5.78996C18.4852 5.68374 18.5496 5.58723 18.6309 5.50594C18.7951 5.34175 19.0178 5.24951 19.25 5.24951C19.365 5.24951 19.4788 5.27216 19.585 5.31615C19.6913 5.36015 19.7878 5.42464 19.8691 5.50594L25.1191 10.7559C25.2004 10.8372 25.265 10.9337 25.309 11.0399C25.353 11.1461 25.3757 11.26 25.3757 11.375C25.3757 11.49 25.353 11.6038 25.309 11.7101C25.265 11.8163 25.2004 11.9128 25.1191 11.9941ZM21 22.75H4.375V9.625C4.375 9.39293 4.28281 9.17037 4.11872 9.00628C3.95462 8.84219 3.73206 8.75 3.5 8.75C3.26794 8.75 3.04538 8.84219 2.88128 9.00628C2.71719 9.17037 2.625 9.39293 2.625 9.625V23.625C2.625 23.8571 2.71719 24.0796 2.88128 24.2437C3.04538 24.4078 3.26794 24.5 3.5 24.5H21C21.2321 24.5 21.4546 24.4078 21.6187 24.2437C21.7828 24.0796 21.875 23.8571 21.875 23.625C21.875 23.3929 21.7828 23.1704 21.6187 23.0063C21.4546 22.8422 21.2321 22.75 21 22.75Z" fill="#5265FF"/>
</svg>
