<svg width="32" height="32" viewBox="0 0 32 32" fill="none" xmlns="http://www.w3.org/2000/svg">
<path d="M20.9388 17.0219C22.2492 15.991 23.2056 14.5772 23.6751 12.9774C24.1446 11.3776 24.1037 9.67117 23.5582 8.09562C23.0127 6.52008 21.9897 5.15374 20.6315 4.18668C19.2733 3.21963 17.6475 2.69995 15.9802 2.69995C14.3129 2.69995 12.687 3.21963 11.3288 4.18668C9.97063 5.15374 8.94762 6.52008 8.40212 8.09562C7.85662 9.67117 7.81577 11.3776 8.28524 12.9774C8.7547 14.5772 9.71115 15.991 11.0215 17.0219C8.77618 17.9215 6.81705 19.4135 5.35298 21.3389C3.88891 23.2643 2.97479 25.551 2.70806 27.9551C2.68875 28.1306 2.7042 28.3082 2.75354 28.4777C2.80287 28.6473 2.88511 28.8054 2.99557 28.9432C3.21865 29.2214 3.54312 29.3997 3.8976 29.4386C4.25208 29.4776 4.60753 29.3742 4.88576 29.1511C5.16399 28.9281 5.3422 28.6036 5.38119 28.2491C5.67468 25.6364 6.9205 23.2234 8.88062 21.4711C10.8407 19.7188 13.3777 18.7502 16.0069 18.7502C18.6361 18.7502 21.1731 19.7188 23.1332 21.4711C25.0933 23.2234 26.3391 25.6364 26.6326 28.2491C26.669 28.5775 26.8257 28.8808 27.0725 29.1005C27.3193 29.3202 27.6388 29.4406 27.9692 29.4386H28.1162C28.4666 29.3983 28.7868 29.2212 29.0071 28.9458C29.2274 28.6704 29.33 28.3191 29.2924 27.9684C29.0244 25.5575 28.1053 23.265 26.6338 21.3366C25.1622 19.4083 23.1935 17.9167 20.9388 17.0219V17.0219ZM15.9802 16.073C14.9228 16.073 13.8891 15.7594 13.0099 15.172C12.1308 14.5845 11.4455 13.7495 11.0409 12.7726C10.6362 11.7957 10.5303 10.7208 10.7366 9.6837C10.9429 8.64662 11.4521 7.69401 12.1998 6.94632C12.9475 6.19863 13.9001 5.68945 14.9372 5.48316C15.9742 5.27687 17.0492 5.38275 18.0261 5.78739C19.003 6.19204 19.838 6.87728 20.4254 7.75647C21.0129 8.63566 21.3264 9.66931 21.3264 10.7267C21.3264 12.1446 20.7632 13.5045 19.7606 14.5071C18.7579 15.5097 17.3981 16.073 15.9802 16.073Z" fill="#5265FF"/>
</svg>
